A kid from the Midwest moves out to Hollywood in order to follow in his parents footsteps -- and
become a porn star.



Encoded By .......: Stang91
Runtime ..........: 1h 36mn
File Size ........: 1.18 GB
Resolution .......: 1280x1200
IMDb URL .........: http://www.imdb.com/title/tt1411664/
Source ...........: BluRay x264-ALLiANCE Thanks
Genre ............: Comedy
Language .........: English
Subtitles ........: None
Video
ID : 0
Format : MPEG-4 Visual
Format profile : Advanced Simple@L5
Format settings, BVOP : Yes
Format settings, QPel : No
Format settings, GMC : No warppoints
Format settings, Matrix : Default (H.263)
Muxing mode : Packed bitstream
Codec ID : XVID
Codec ID/Hint : XviD
Duration : 1h 36mn
Bit rate : 1 280 Kbps
Width : 1 200 pixels
Height : 640 pixels
Display aspect ratio : 1.875
Frame rate : 23.976 fps
Color space : YUV
Chroma subsampling : 4:2:0
Bit depth : 8 bits
Scan type : Progressive
Compression mode : Lossy
Bits/(Pixel*Frame) : 0.070
Stream size : 887 MiB (74%)
Writing library : XviD 64
Audio
ID : 1
Format : AC-3
Format/Info : Audio Coding 3
Mode extension : CM (complete main)
Codec ID : 2000
Duration : 1h 36mn
Bit rate mode : Constant
Bit rate : 448 Kbps
Channel(s) : 6 channels
Channel positions : Front: L C R, Side: L R, LFE
Sampling rate : 48.0 KHz
Bit depth : 16 bits
Compression mode : Lossy
Stream size : 310 MiB (26%)
Alignment : Split accross interleaves
Interleave, duration : 42 ms (1.00 video frame)
Interleave, preload duration : 500 ms
 
http://www.shotpix.com/images/60906705746397439425.png 
http://www.shotpix.com/images/21107916086955399976.png 
http://www.shotpix.com/images/65472945268339488169.png 
http://www.shotpix.com/images/24162154748589678750.png